<?xml version="1.0" encoding="UTF-8"?>
<svg width="54px" height="25px" viewBox="0 0 54 25" version="1.1" xmlns="http://www.w3.org/2000/svg" xmlns:xlink="http://www.w3.org/1999/xlink">
    <!-- Generator: Sketch 43.1 (39012) - http://www.bohemiancoding.com/sketch -->
    <title>uEA39-vai</title>
    <desc>Created with Sketch.</desc>
    <defs></defs>
    <g id="Page-1" stroke="none" stroke-width="1" fill="none" fill-rule="evenodd">
        <g id="wiki-open-people" transform="translate(-47.000000, -22.000000)" fill="#FBF9F9">
            <path d="M71.302837,45.7092882 C73.9301386,42.8197603 75.5409179,38.9219827 75.5409179,34.6333434 C75.5409179,34.3273291 75.5327166,34.0233049 75.51653,33.721495 L79.162751,23.3481376 L85.1126557,23.3481376 L93.2447153,46.3942062 L88.0012637,46.3942062 L86.3371743,40.9309692 L77.9696303,40.9309692 L76.3055409,46.3942062 L71.0620893,46.3942062 L71.302837,45.7092882 Z M85.1754515,36.8492405 C83.636946,31.8988113 82.7708956,29.099192 82.5772741,28.4502985 C82.3836527,27.8014051 82.24498,27.2885776 82.1612518,26.9118008 C81.815873,28.2514518 80.8268486,31.5638986 79.1941489,36.8492405 L85.1754515,36.8492405 Z M96.1333234,46.3942062 L96.1333234,23.4423313 L101,23.4423313 L101,46.3942062 L96.1333234,46.3942062 Z M59.4158354,46.8316708 C52.5440651,46.8316708 47,41.2592846 47,34.4158354 C47,27.5723862 52.5440651,22 59.4158354,22 C66.2876057,22 71.8316708,27.5723862 71.8316708,34.4158354 C71.8316708,41.2592846 66.2876057,46.8316708 59.4158354,46.8316708 Z M59.3667965,45.1720569 C53.3844985,45.1720569 48.5029405,40.3243104 48.5029405,34.3082009 C48.5029405,28.2920914 53.3844985,23.4443449 59.3667965,23.4443449 C65.3490945,23.4443449 70.2306525,28.2920914 70.2306525,34.3082009 C70.2306525,40.3243104 65.3490945,45.1720569 59.3667965,45.1720569 Z M65.2564712,34.5547628 L56.3446423,29.7689752 L56.3446423,39.3405504 L65.2564712,34.5547628 Z" id="uEA39-vai"></path>
        </g>
    </g>
</svg>